<svg xmlns="http://www.w3.org/2000/svg" width="248.716" height="83.469"><path fill="none" d="M-725-3292.122h1949.998V3393H-725"/><g fill="#FFF"><path d="M233.732 35.178c-11.343-2.135-23.929 5.441-28.113 16.91-4.181 11.471 1.629 22.502 12.97 24.631 11.342 2.131 23.934-5.445 28.112-16.916 4.186-11.469-1.625-22.5-12.969-24.625m2.116 20.599c-2.284 8.252-8.443 14.941-13.755 14.941-5.317 0-7.781-6.689-5.497-14.941 2.279-8.248 8.438-14.934 13.757-14.934 5.311.001 7.768 6.686 5.495 14.934m-59.146-.291c-1.682-1.76-4.552-3.641-7.032-4.923-2.489-1.288-4.188-3.069-3.294-5.657.965-2.789 4.787-4.299 7.538-4.299 2.709 0 5.546 1.027 7.793 2.945.165-.453 2.354-6.505 2.475-6.852-2.651-1.209-6.215-1.883-9.707-1.883-4.311 0-8.35.856-11.817 2.809-3.517 1.996-6.346 5.115-7.584 8.587-2.357 6.62 2.724 10.591 7.196 12.997 3.613 1.947 5.984 4.012 4.774 7.127-1.244 3.203-5.418 4.666-8.653 4.666-3.884 0-7.803-1.615-10.421-4.037l-2.641 7.244c3.239 1.738 8.265 2.863 12.002 2.863 3.914 0 9.565-.779 13.5-3.057 3.631-2.102 6.523-5.252 7.766-9.188 1.136-3.59.429-6.912-1.895-9.342M75.122 35.797H62.176v.182c1.129.871 1.709 2.006 1.992 3.359-3.207 3.625-12.582 14.234-13.432 15.133-1.902 2.027-3.993 3.316-6.602 3.82-.937.182-7.487 1.316-10.142 1.775a8.609 8.609 0 0 0-2.307-4.58c-1.687-1.76-4.655-3.699-7.03-4.923-2.38-1.221-4.835-3.153-5.548-5.536-.644-2.17 0-4.379 1.942-6.334 2.719-2.348 6.021-2.729 7.483-2.727 1.463.008 3.526.262 4.979.83 1.192.459 1.416 1.682.686 3.227-.333.707-3.911 7.245-4.934 9.113h.179c1.685-1.863 7.583-8.368 8.353-9.195 1.701-1.805 2.889-2.65 5.233-3.145.826-.174 6.719-1.151 8.44-1.438v-.18c-1.393-.297-5.44-1.168-5.937-1.361-1.421-.553-1.601-1.732-.901-3.281.307-.67 3.732-6.994 4.715-8.797h-.175c-1.672 1.826-7.576 8.28-8.142 8.885-1.442 1.547-3.431 2.81-5.285 3.146a77.006 77.006 0 0 1-7.164.916c-3.743.308-7.743 1.118-10.936 2.94-3.491 1.988-6.351 5.115-7.589 8.586-2.357 6.621 2.728 10.592 7.197 12.998 3.617 1.947 5.987 4.012 4.776 7.127-1.243 3.203-5.418 4.666-8.651 4.666-3.889 0-8.129-1.797-10.736-4.221L0 74.029c3.229 1.738 8.575 3.045 12.317 3.045 3.914 0 9.569-.779 13.498-3.057 3.629-2.102 6.515-5.252 7.763-9.188.475-1.498.625-2.943.475-4.305 1.85.418 5.328 1.219 6.354 1.537 1.869.586 2.467 2.65 1.298 4.895-.937 1.793-7.726 13.496-9.361 16.318h.174c2.641-3.016 14.166-16.209 15.14-17.223 2.134-2.229 4.167-3.312 6.604-3.824.852-.182 7.307-1.297 9.992-1.766l-.086 8.668c.008 1.123-.055 2.371-.384 3.275-.631 1.766-1.819 2.67-3.303 3.504v.186h16.696v-.184c-1.95-2.834-1.982-4.348-2.01-7.504l-.045-32.609zm-17.305 22.66c-1.806-.543-2.507-2.496-1.302-4.895.73-1.461 5.623-10.027 7.742-13.73.184 1.156.193 2.449.166 3.871l-.162 16.291c-1.884-.426-5.468-1.244-6.444-1.537M207.93 35.979v-.182h-15.691v.182c.652.689.94 1.516.94 2.445 0 1.527-.661 3.293-1.308 5.025l-9.095 25.197c-.941 2.713-1.955 5.488-4.838 7.266v.184h15.674v-.184c-.649-.691-.931-1.516-.931-2.439 0-1.512.652-3.252 1.296-4.959l9.093-25.219c.946-2.736 1.967-5.533 4.86-7.316"/><path d="M63.935 22.896c-.407.908-5.916 10.574-7.333 13.055h.18c2.284-2.582 11.48-12.998 12.37-13.881 1.929-1.91 3.664-2.881 5.845-3.383 1.022-.24 10.666-1.555 13.179-1.891v-.182c-2.042-.342-8.694-1.461-9.443-1.709-2.032-.658-2.554-2.004-1.444-4.369.48-1.02 4.535-8.548 5.609-10.536h-.178c-1.9 2.088-9.406 10.314-10.453 11.359-1.799 1.797-3.438 2.824-5.842 3.381-1.052.246-10.022 1.559-12.33 1.898v.178c1.837.35 7.793 1.492 8.506 1.719 2.143.674 2.354 2.096 1.334 4.361m72.409 34.698c1.576-.012 3.361-.025 4.253.863.265.264.416.598.489.979h.183c.562-1.549 2.678-7.42 2.847-7.863-.576.209-1.34.312-2.422.312h-8.274l3.765-10.432 5.08-.002c2.645-.027 5.578.002 6.461 2.258h.182c.494-1.391 2.778-7.699 2.955-8.189-.789.256-1.698.277-2.594.277h-23.402v.182c.643.676.936 1.492.936 2.416 0 1.504-.658 3.26-1.297 4.975l-9.133 25.299c-.938 2.703-1.946 5.471-4.829 7.242v.186h29.078l2.987-8.146h-.174c-2.504 1.961-5.496 2.328-8.136 2.303l-.805-.004h-7.716l4.578-12.652 4.988-.004zm-33.578 12.658l-.805-.004h-7.6l9.707-26.9c.953-2.76 1.987-5.582 4.873-7.373v-.178H93.424v.178c.648.693.938 1.52.938 2.447 0 1.523-.664 3.283-1.308 5.012l-9.101 25.205c-.933 2.721-1.941 5.496-4.834 7.273v.184h28.969c.498-1.361 2.549-6.963 2.992-8.146h-.183c-2.494 1.96-5.491 2.327-8.131 2.302"/></g></svg>